<svg width="512" height="512" viewBox="0 0 512 512" fill="none" xmlns="http://www.w3.org/2000/svg">
  <rect width="512" height="512" rx="96" fill="#05070d"/>
  <path d="M86 244C92.116 155.43 165.864 85 256 85C346.136 85 419.884 155.43 426 244H307.903C300.157 220.226 279.756 203 256 203C232.244 203 211.843 220.226 204.097 244H86Z" fill="#f2372f"/>
  <path d="M426 268C419.884 356.57 346.136 427 256 427C165.864 427 92.116 356.57 86 268H204.097C211.843 291.774 232.244 309 256 309C279.756 309 300.157 291.774 307.903 268H426Z" fill="#f8fafc"/>
  <path d="M86 244H204.097C201.43 252.183 201.43 259.817 204.097 268H86V244Z" fill="#05070d"/>
  <path d="M307.903 244H426V268H307.903C310.57 259.817 310.57 252.183 307.903 244Z" fill="#05070d"/>
  <circle cx="256" cy="256" r="70" fill="#05070d"/>
  <circle cx="256" cy="256" r="38" fill="#ffd323"/>
</svg>
